<svg height="24" width="24" xmlns="http://www.w3.org/2000/svg"><path d="m11.997933.9999685c-.979388 2.4007451-1.5701 3.9711157-2.6605192 6.3004973.6685632.7085438 1.4891932 1.5336785 2.8218922 2.4655904-1.432781-.5894717-2.5077454-1.034872-3.2381205-1.6490016-1.3955296 2.9114384-3.484294 6.9122394-7.9211855 14.8829424 3.4872462-2.01287 6.1905019-3.25383 8.7098043-3.727346-.1081714-.465192-.1696849-.968391-.1655076-1.493422l.00413-.111691c.05533-2.233768 1.2175563-3.951539 2.5943183-3.834906 1.376766.116628 2.446908 2.023096 2.391575 4.256871-.01045.42032-.05783.82467-.140679 1.199697 2.491948.487378 5.166295 1.725162 8.606364 3.7108-.678315-1.24859-1.283766-2.374101-1.861957-3.446036-.910735-.70575-1.860678-1.624286-3.798381-2.618656 1.331862.346008 2.187837.623199 2.931148 1.069415-5.878577-10.9428421-6.256987-12.2749092-8.272882-17.0047545z" fill="#bebebe" fill-rule="evenodd"/></svg>